<?xml version="1.0" encoding="utf-8"?>
<!-- Generator: Adobe Illustrator 27.5.0, SVG Export Plug-In . SVG Version: 6.00 Build 0)  -->
<svg version="1.1" xmlns="http://www.w3.org/2000/svg" xmlns:xlink="http://www.w3.org/1999/xlink" x="0px" y="0px"
	 viewBox="0 0 750 500" style="enable-background:new 0 0 750 500;" xml:space="preserve">
<g id="Background_Simple">
	<g>
		<path style="fill:#92E3A9;" d="M640.222,130.456c0,0-107.274-108.407-246.674-116.772
			C254.149,5.32,172.852,94.168,134.331,147.164C95.811,200.161-0.262,288.452,11.041,369.309
			c11.303,80.857,122.445,142.196,281.625,115.244c159.179-26.952,205.332-37.176,277.857-16.729
			c72.526,20.447,166.714-10.223,168.598-126.397C741.004,225.254,640.222,130.456,640.222,130.456z"/>
		<path style="opacity:0.7;fill:#FFFFFF;" d="M640.222,130.456c0,0-107.274-108.407-246.674-116.772
			C254.149,5.32,172.852,94.168,134.331,147.164C95.811,200.161-0.262,288.452,11.041,369.309
			c11.303,80.857,122.445,142.196,281.625,115.244c159.179-26.952,205.332-37.176,277.857-16.729
			c72.526,20.447,166.714-10.223,168.598-126.397C741.004,225.254,640.222,130.456,640.222,130.456z"/>
	</g>
</g>
<g id="Clouds">
	<g>
		<path style="fill:none;stroke:#263238;stroke-linecap:round;stroke-linejoin:round;stroke-miterlimit:10;" d="M582.131,86.007
			c0,0-6.157-13.469-20.396-11.545c-14.239,1.924-14.239,10.006-17.702,11.545c-3.463,1.539-7.312-4.618-11.93-2.694
			c-4.618,1.924-5.388,5.388-7.312,6.927c-1.924,1.539-6.157-1.924-10.775-1.155c-4.618,0.77-9.621,6.157-9.621,6.157
			s-6.542-1.924-8.851-1.539c-2.309,0.385-5.003,3.079-5.003,3.079h118.143c0,0-2.309-8.466-6.157-10.39
			c-3.848-1.924-11.16,0.385-14.239,0.77C585.21,87.546,582.131,86.007,582.131,86.007z"/>
		<path style="fill:none;stroke:#263238;stroke-linecap:round;stroke-linejoin:round;stroke-miterlimit:10;" d="M267.258,37.826
			c0,0-8.685-18.999-28.769-16.285c-20.085,2.714-20.085,14.113-24.97,16.285c-4.885,2.171-10.314-6.514-16.828-3.8
			c-6.514,2.714-7.599,7.599-10.314,9.771s-8.685-2.714-15.199-1.628c-6.514,1.086-13.571,8.685-13.571,8.685
			s-9.228-2.714-12.485-2.171c-3.257,0.543-7.057,4.343-7.057,4.343h166.646c0,0-3.257-11.942-8.685-14.656
			c-5.428-2.714-15.742,0.543-20.084,1.086C271.601,39.997,267.258,37.826,267.258,37.826z"/>
		<path style="fill:none;stroke:#263238;stroke-linecap:round;stroke-linejoin:round;stroke-miterlimit:10;" d="M144.08,83.495
			c0,0-5.405-11.822-17.902-10.133c-12.498,1.689-12.498,8.782-15.538,10.133c-3.04,1.351-6.418-4.053-10.471-2.365
			c-4.053,1.689-4.729,4.729-6.418,6.08c-1.689,1.351-5.404-1.689-9.458-1.013c-4.053,0.676-8.444,5.404-8.444,5.404
			s-5.742-1.689-7.769-1.351c-2.027,0.338-4.391,2.702-4.391,2.702h103.698c0,0-2.027-7.431-5.404-9.12
			c-3.378-1.689-9.796,0.338-12.498,0.675C146.782,84.846,144.08,83.495,144.08,83.495z"/>
	</g>
</g>
<g id="Floor">
	
		<line style="fill:#FFFFFF;stroke:#263238;stroke-linecap:round;stroke-linejoin:round;stroke-miterlimit:10;" x1="11.708" y1="458.196" x2="738.459" y2="458.196"/>
</g>
<g id="Money">
	<g>
		<g>
			<g>
				
					<rect x="127.07" y="110.081" transform="matrix(-0.9847 0.1741 -0.1741 -0.9847 379.1975 350.2447)" style="fill:#92E3A9;stroke:#263238;stroke-miterlimit:10;" width="94.342" height="163.338"/>
				<path style="fill:#FFFFFF;stroke:#263238;stroke-miterlimit:10;" d="M126.653,140.939c6.19-1.094,10.321-6.999,9.227-13.189
					c-0.083-0.471-0.203-0.924-0.34-1.37l53.342-9.428c0.024,0.465,0.067,0.933,0.15,1.403c1.094,6.19,6.999,10.322,13.189,9.227
					c0.234-0.042,0.459-0.103,0.687-0.158l20.314,114.926c-0.233,0.027-0.465,0.046-0.7,0.088
					c-6.19,1.094-10.321,6.999-9.227,13.189c0.083,0.471,0.203,0.925,0.34,1.37l-53.342,9.428c-0.024-0.465-0.067-0.933-0.15-1.403
					c-1.094-6.19-6.999-10.321-13.189-9.227c-0.471,0.083-0.924,0.203-1.37,0.34l-20.334-115.045
					C125.715,141.065,126.182,141.022,126.653,140.939z M177.488,210.122c10.147-1.793,16.919-11.473,15.125-21.62
					c-1.793-10.147-11.473-16.919-21.62-15.125c-10.147,1.794-16.919,11.473-15.125,21.62
					C157.662,205.143,167.342,211.915,177.488,210.122z"/>
			</g>
			<g>
				
					<rect x="119.814" y="108.991" transform="matrix(-0.9547 0.2974 -0.2974 -0.9547 383.1227 323.0214)" style="fill:#92E3A9;stroke:#263238;stroke-miterlimit:10;" width="94.342" height="163.338"/>
				<path style="fill:#FFFFFF;stroke:#263238;stroke-miterlimit:10;" d="M113.34,146.29c6.001-1.87,9.351-8.251,7.481-14.252
					c-0.142-0.456-0.318-0.891-0.51-1.316l51.717-16.112c0.083,0.458,0.185,0.916,0.327,1.373c1.87,6.002,8.251,9.351,14.253,7.481
					c0.227-0.071,0.442-0.16,0.662-0.243l34.714,111.425c-0.228,0.056-0.456,0.105-0.683,0.176
					c-6.002,1.87-9.351,8.251-7.482,14.252c0.142,0.456,0.318,0.891,0.511,1.316l-51.717,16.112
					c-0.083-0.458-0.185-0.917-0.327-1.373c-1.87-6.002-8.251-9.351-14.252-7.481c-0.456,0.142-0.891,0.318-1.316,0.511
					l-34.75-111.541C112.426,146.534,112.884,146.432,113.34,146.29z M172.534,208.473c9.838-3.065,15.328-13.524,12.263-23.362
					c-3.065-9.838-13.524-15.328-23.362-12.263c-9.838,3.065-15.328,13.525-12.263,23.362
					C152.237,206.047,162.697,211.538,172.534,208.473z"/>
			</g>
			<g>
				
					<rect x="110.89" y="116.401" transform="matrix(-0.8963 0.4435 -0.4435 -0.8963 387.5668 305.5036)" style="fill:#92E3A9;stroke:#263238;stroke-miterlimit:10;" width="94.342" height="163.338"/>
				<path style="fill:#FFFFFF;stroke:#263238;stroke-miterlimit:10;" d="M98.124,162.659c5.634-2.788,7.942-9.615,5.154-15.249
					c-0.212-0.428-0.454-0.83-0.71-1.219l48.551-24.022c0.154,0.44,0.327,0.876,0.538,1.305c2.788,5.634,9.615,7.942,15.249,5.154
					c0.213-0.106,0.412-0.227,0.615-0.344l51.756,104.604c-0.216,0.091-0.434,0.175-0.647,0.28
					c-5.634,2.788-7.942,9.615-5.154,15.249c0.212,0.428,0.454,0.831,0.71,1.219l-48.551,24.022
					c-0.154-0.44-0.326-0.876-0.538-1.305c-2.788-5.634-9.615-7.942-15.249-5.154c-0.428,0.212-0.83,0.454-1.219,0.711
					L96.819,163.198C97.259,163.044,97.695,162.871,98.124,162.659z M166.335,214.792c9.235-4.569,13.018-15.76,8.449-24.996
					c-4.569-9.235-15.761-13.018-24.996-8.449c-9.235,4.57-13.018,15.761-8.449,24.996
					C145.908,215.579,157.1,219.361,166.335,214.792z"/>
			</g>
			<g>
				
					<rect x="99.745" y="130.228" transform="matrix(-0.7643 0.6449 -0.6449 -0.7643 395.8496 279.1031)" style="fill:#92E3A9;stroke:#263238;stroke-miterlimit:10;" width="94.342" height="163.338"/>
				<path style="fill:#FFFFFF;stroke:#263238;stroke-miterlimit:10;" d="M80.251,191.842c4.804-4.054,5.413-11.235,1.359-16.039
					c-0.308-0.365-0.64-0.698-0.981-1.014l41.4-34.932c0.254,0.39,0.526,0.773,0.835,1.138c4.054,4.805,11.235,5.413,16.039,1.359
					c0.182-0.153,0.346-0.319,0.515-0.481l75.262,89.198c-0.188,0.14-0.379,0.273-0.561,0.427
					c-4.805,4.054-5.413,11.235-1.359,16.039c0.308,0.365,0.639,0.698,0.981,1.014l-41.4,34.932
					c-0.254-0.39-0.527-0.773-0.835-1.138c-4.054-4.804-11.235-5.413-16.039-1.359c-0.365,0.308-0.698,0.64-1.014,0.982
					l-75.34-89.29C79.503,192.422,79.886,192.15,80.251,191.842z M158.947,226.156c7.875-6.645,8.873-18.416,2.228-26.291
					c-6.645-7.875-18.416-8.873-26.291-2.228c-7.875,6.645-8.873,18.416-2.228,26.291
					C139.301,231.803,151.072,232.801,158.947,226.156z"/>
			</g>
			<g>
				
					<rect x="90.997" y="150.498" transform="matrix(-0.5392 0.8422 -0.8422 -0.5392 408.1934 240.9743)" style="fill:#92E3A9;stroke:#263238;stroke-miterlimit:10;" width="94.342" height="163.338"/>
				<path style="fill:#FFFFFF;stroke:#263238;stroke-miterlimit:10;" d="M68.554,232.743c3.389-5.294,1.845-12.333-3.45-15.723
					c-0.402-0.258-0.817-0.477-1.238-0.678l29.205-45.621c0.358,0.298,0.732,0.582,1.134,0.84
					c5.294,3.389,12.334,1.845,15.723-3.449c0.128-0.2,0.235-0.407,0.35-0.612l98.292,62.923c-0.138,0.19-0.281,0.373-0.409,0.574
					c-3.389,5.294-1.845,12.333,3.449,15.723c0.402,0.258,0.817,0.477,1.238,0.678l-29.205,45.621
					c-0.358-0.297-0.732-0.582-1.134-0.84c-5.294-3.389-12.333-1.845-15.723,3.449c-0.257,0.402-0.477,0.817-0.678,1.238
					l-98.394-62.988C68.011,233.519,68.296,233.146,68.554,232.743z M153.88,242.226c5.555-8.678,3.024-20.217-5.654-25.772
					c-8.678-5.555-20.217-3.024-25.772,5.654c-5.556,8.678-3.024,20.217,5.654,25.772
					C136.786,253.435,148.325,250.904,153.88,242.226z"/>
			</g>
		</g>
		<polygon style="opacity:0.27;" points="217.224,169.352 168.985,206.759 136.47,209.421 132.657,223.928 146.333,224.832 
			137.043,287.455 162.939,304.033 163.531,304.734 163.748,304.551 181.517,315.926 212.216,267.972 234.907,263.961 
			233.412,255.505 236.313,254.602 235.198,251.023 236.557,250.35 234.032,245.247 235.635,243.895 231.421,238.902 
			231.226,238.276 232.382,236.471 230.236,235.097 229.24,231.9 222.542,194.004 221.19,192.17 		"/>
	</g>
</g>
<g id="Piggy_Bank">
	<g>
		<g>
			<path style="fill:#92E3A9;stroke:#263238;stroke-miterlimit:10;" d="M181.036,331.458c2.993,15.318,15.108,25.843,27.059,23.508
				c11.951-2.335,19.214-16.646,16.221-31.964c-2.993-15.318-15.108-25.843-27.059-23.508S178.044,316.14,181.036,331.458z"/>
			<g>
				<path style="fill:#92E3A9;stroke:#263238;stroke-miterlimit:10;" d="M97.909,300.582c0,0-17.564-27.128-38.033-22.736
					c-13.632,2.925-5.623,28.864-5.623,28.864"/>
				<path style="fill:#263238;stroke:#263238;stroke-miterlimit:10;" d="M58.824,309.252c-0.02,0.003-0.039,0.008-0.058,0.011
					l-1.255-0.32c0,0-7.83-23.785,3.576-23.488c9.629,0.251,22.579,22.468,26.381,29.385
					C80.05,309.664,69.732,307.351,58.824,309.252z"/>
			</g>
			<path style="fill:#263238;stroke:#263238;stroke-miterlimit:10;" d="M143.609,425.068l4.803,21.18
				c1.494,6.587,7.349,11.263,14.103,11.263h0c6.754,0,12.609-4.676,14.103-11.263l8.453-37.276"/>
			<path style="fill:#263238;stroke:#263238;stroke-miterlimit:10;" d="M70.235,425.068l4.82,21.254
				c1.484,6.544,7.3,11.189,14.01,11.189l0,0c6.779,0,12.635-4.739,14.05-11.368l4.81-22.544"/>
			<path style="fill:#92E3A9;stroke:#263238;stroke-miterlimit:10;" d="M27.917,361.718c0,25.872,13.691,49.046,35.293,64.648
				c17.626,12.73,40.519,20.418,65.54,20.418c55.689,0,100.833-38.086,100.833-85.067c0-46.981-45.145-85.067-100.833-85.067
				C73.062,276.651,27.917,314.737,27.917,361.718z"/>
			<path style="fill:none;stroke:#263238;stroke-miterlimit:10;" d="M46.451,403.091c5.358,7.57,12.142,14.338,20.038,20.041
				c5.231,3.778,10.949,7.088,17.065,9.854"/>
			<path style="fill:#FFFFFF;stroke:#263238;stroke-miterlimit:10;" d="M35.521,380.352c1.281,4.581,3.025,9.011,5.187,13.253"/>
			<path style="fill:none;stroke:#263238;stroke-miterlimit:10;" d="M209.511,318.243c-3.171-4.184-6.787-8.105-10.791-11.717"/>
			<path style="fill:none;stroke:#263238;stroke-miterlimit:10;" d="M214.311,398.091c6.543-10.932,10.228-23.289,10.228-36.373
				c0-13.094-3.691-25.46-10.244-36.399"/>
			<path style="fill:none;stroke:#263238;stroke-miterlimit:10;" d="M83.555,432.986c13.463,6.089,28.851,9.543,45.195,9.543
				c18.697,0,36.143-4.519,50.887-12.334"/>
			<g>
				<path style="fill:#FFFFFF;stroke:#263238;stroke-miterlimit:10;" d="M107.459,280.866c2.002,0.704,3.608,1.386,4.869,2.009
					c0.968,0.477,1.745,0.917,2.347,1.291c1.276-0.154,2.559-0.286,3.85-0.389c3.19-0.279,6.431-0.418,9.709-0.418
					c14.725,0,28.688,2.794,41.235,7.81c2.185,0.873,4.327,1.819,6.424,2.823c-4.011-4.209-8.499-7.267-12.085-9.299
					c-11.029-3.703-23.027-5.735-35.574-5.735C121.106,278.96,114.161,279.62,107.459,280.866z"/>
				<path style="fill:#263238;stroke:#263238;stroke-miterlimit:10;" d="M112.328,282.876l6.197,0.902
					c3.19-0.279,6.431-0.418,9.709-0.418c14.725,0,28.688,2.794,41.235,7.81c-1.995-1.467-3.931-2.691-5.661-3.674
					c-11.029-3.696-23.027-5.735-35.574-5.735C122.822,281.761,117.513,282.15,112.328,282.876z"/>
			</g>
			<path style="fill:#92E3A9;stroke:#263238;stroke-miterlimit:10;" d="M167.943,425.068l4.803,21.18
				c1.494,6.587,7.348,11.263,14.103,11.263l0,0c6.754,0,12.609-4.676,14.103-11.263l8.453-37.276"/>
			<path style="fill:#92E3A9;stroke:#263238;stroke-miterlimit:10;" d="M96.066,425.068l4.82,21.254
				c1.484,6.544,7.3,11.189,14.011,11.189l0,0c6.779,0,12.635-4.739,14.05-11.368l4.81-22.544"/>
			<g>
				<path style="fill:#92E3A9;stroke:#263238;stroke-miterlimit:10;" d="M138.083,314.45c0,0-2.538-31.471-24.111-40.354
					c-14.367-5.916-20.225,18.909-20.225,18.909"/>
				<path style="fill:#263238;stroke:#263238;stroke-miterlimit:10;" d="M96.743,297.707c-0.02-0.009-0.04-0.017-0.061-0.026
					l-1.018-1c0,0,4.913-23.055,15.515-15.987c8.95,5.967,9.677,30.882,9.686,38.501
					C116.546,310.753,108.012,302.781,96.743,297.707z"/>
			</g>
			<path style="fill:#263238;stroke:#263238;stroke-miterlimit:10;" d="M74.507,315.713c0,3.424,1.619,6.199,3.616,6.199
				s3.616-2.776,3.616-6.199c0-3.424-1.619-6.199-3.616-6.199S74.507,312.289,74.507,315.713z"/>
			<ellipse style="fill:#263238;stroke:#263238;stroke-miterlimit:10;" cx="57.49" cy="313.148" rx="3.069" ry="5.701"/>
			<g>
				<circle style="fill:#92E3A9;stroke:#263238;stroke-miterlimit:10;" cx="52.279" cy="343.05" r="25.087"/>
				<circle style="fill:#92E3A9;stroke:#263238;stroke-miterlimit:10;" cx="45.415" cy="343.05" r="25.087"/>
				<ellipse style="fill:#263238;stroke:#263238;stroke-miterlimit:10;" cx="52.658" cy="343.429" rx="5.28" ry="8.712"/>
				<ellipse style="fill:#263238;stroke:#263238;stroke-miterlimit:10;" cx="33.752" cy="342.07" rx="5.28" ry="8.712"/>
			</g>
		</g>
		<path style="opacity:0.27;" d="M224.316,323.002c-2.976-15.233-14.974-25.721-26.861-23.54
			c-18.007-14.15-42.155-22.811-68.705-22.811c-1.588,0-3.166,0.033-4.735,0.095L97.946,452.473l1.597,0.48
			c0.975-1.042,1.804-2.228,2.44-3.537c1.169,2.408,2.976,4.413,5.181,5.827l7.521,2.26c0.071,0.001,0.14,0.008,0.211,0.008
			c6.556,0,12.236-4.438,13.883-10.726c6.635-0.001,13.118-0.549,19.396-1.583l0.237,1.046c1.494,6.587,7.349,11.263,14.103,11.263
			h0c5.034,0,9.565-2.599,12.167-6.649c2.602,4.05,7.133,6.649,12.167,6.649c6.754,0,12.609-4.676,14.103-11.263l7.304-32.206
			c13.363-14.431,21.329-32.592,21.329-52.324c0-9.27-1.764-18.19-5.013-26.543C225.182,331.345,225.139,327.212,224.316,323.002z"
			/>
	</g>
</g>
<g id="Bank">
	<g>
		<polygon style="fill:#D9D9D9;stroke:#263238;stroke-linecap:round;stroke-linejoin:round;stroke-miterlimit:10;" points="
			580.019,424.008 172.01,424.008 195.122,159.57 556.907,159.57 		"/>
		<polygon style="fill:#263238;stroke:#263238;stroke-linecap:round;stroke-linejoin:round;stroke-miterlimit:10;" points="
			562.883,227.95 189.145,227.95 195.122,159.57 556.907,159.57 		"/>
		<g>
			<polygon style="fill:#FFFFFF;stroke:#263238;stroke-linecap:round;stroke-linejoin:round;stroke-miterlimit:10;" points="
				376.034,424.008 312.558,424.008 318.508,205.151 376.033,205.151 			"/>
			<polygon style="fill:#C4C4C4;stroke:#263238;stroke-linecap:round;stroke-linejoin:round;stroke-miterlimit:10;" points="
				376.033,228.597 317.87,228.597 318.508,205.151 376.033,205.151 			"/>
			<polygon style="fill:#263238;stroke:#263238;stroke-linecap:round;stroke-linejoin:round;stroke-miterlimit:10;" points="
				370.443,412.098 318.472,412.098 323.322,216.385 370.913,216.385 			"/>
			<polygon style="fill:#FFFFFF;stroke:#263238;stroke-linecap:round;stroke-linejoin:round;stroke-miterlimit:10;" points="
				439.471,424.008 375.994,424.008 375.996,205.151 433.521,205.151 			"/>
			<polygon style="fill:#C4C4C4;stroke:#263238;stroke-linecap:round;stroke-linejoin:round;stroke-miterlimit:10;" points="
				434.165,228.82 375.996,228.82 375.996,205.151 433.521,205.151 			"/>
			<polygon style="fill:#263238;stroke:#263238;stroke-linecap:round;stroke-linejoin:round;stroke-miterlimit:10;" points="
				433.557,412.098 381.585,412.098 381.116,216.385 428.707,216.385 			"/>
		</g>
		<polygon style="fill:#C4C4C4;stroke:#263238;stroke-linecap:round;stroke-linejoin:round;stroke-miterlimit:10;" points="
			439.516,205.524 312.513,205.524 312.874,193.473 439.154,193.473 		"/>
		<g>
			<g>
				<path style="fill:#FFFFFF;stroke:#263238;stroke-linecap:round;stroke-linejoin:round;stroke-miterlimit:10;" d="
					M506.156,407.59h-35.368l-6.295-96.649c-1.313-17.289-1.973-34.332-1.993-51.092l-1.084-81.453h31.871l6.854,81.93
					c1.602,16.763,2.593,33.81,2.955,51.103L506.156,407.59z"/>
				<path style="fill:none;stroke:#263238;stroke-linecap:round;stroke-linejoin:round;stroke-miterlimit:10;" d="M493.478,229.352
					l2.341,30.975c1.421,16.763,2.374,33.81,2.846,51.103l3.43,96.16h-27.245l-5.926-96.649
					c-1.204-17.289-1.902-34.332-2.105-51.092l-1.743-81.453h24.551l3.325,43.99"/>
				<path style="fill:none;stroke:#263238;stroke-linecap:round;stroke-linejoin:round;stroke-miterlimit:10;" d="M477.618,332.543
					l-1.185-21.602c-1.019-17.289-1.783-34.332-2.294-51.092l-2.859-81.453h12.143l5.072,81.93
					c1.114,16.763,2.003,33.81,2.661,51.103l4.054,96.16h-13.475l-3.717-67.771"/>
				<polygon style="fill:#263238;stroke:#263238;stroke-linecap:round;stroke-linejoin:round;stroke-miterlimit:10;" points="
					493.719,184.757 461.572,184.757 461.416,180.934 493.504,180.934 				"/>
				<g>
					<polygon style="fill:#FFFFFF;stroke:#263238;stroke-linecap:round;stroke-linejoin:round;stroke-miterlimit:10;" points="
						497.641,182.119 457.462,182.119 457.12,173.316 497.129,173.316 					"/>
					<polygon style="fill:#263238;stroke:#263238;stroke-linecap:round;stroke-linejoin:round;stroke-miterlimit:10;" points="
						497.343,176.999 457.263,176.999 457.12,173.316 497.129,173.316 					"/>
					<polygon style="fill:#FFFFFF;stroke:#263238;stroke-linecap:round;stroke-linejoin:round;stroke-miterlimit:10;" points="
						502.866,174.113 451.46,174.113 451.172,166.168 502.383,166.168 					"/>
					<polygon style="fill:#263238;stroke:#263238;stroke-linecap:round;stroke-linejoin:round;stroke-miterlimit:10;" points="
						502.608,169.865 451.306,169.865 451.172,166.168 502.383,166.168 					"/>
				</g>
				<g>
					<polygon style="fill:#FFFFFF;stroke:#263238;stroke-linecap:round;stroke-linejoin:round;stroke-miterlimit:10;" points="
						510.671,406.264 466.188,406.264 466.612,417.151 511.304,417.151 					"/>
					<polygon style="fill:#FFFFFF;stroke:#263238;stroke-linecap:round;stroke-linejoin:round;stroke-miterlimit:10;" points="
						517.598,416.157 460.221,416.157 460.583,426.136 518.205,426.136 					"/>
				</g>
			</g>
			<g>
				<path style="fill:#FFFFFF;stroke:#263238;stroke-linecap:round;stroke-linejoin:round;stroke-miterlimit:10;" d="
					M202.384,407.59h-35.368l6.373-96.649c0.953-17.289,2.527-34.332,4.703-51.092l9.592-81.453h31.871l-3.885,81.93
					c-0.595,16.763-1.839,33.81-3.743,51.103L202.384,407.59z"/>
				<path style="fill:none;stroke:#263238;stroke-linecap:round;stroke-linejoin:round;stroke-miterlimit:10;" d="M213.067,229.352
					l-1.719,30.975c-0.776,16.763-2.057,33.81-3.852,51.103l-9.173,96.16h-27.245l6.741-96.649
					c1.062-17.289,2.597-34.332,4.591-51.092l8.933-81.453h24.551l-2.441,43.99"/>
				<path style="fill:none;stroke:#263238;stroke-linecap:round;stroke-linejoin:round;stroke-miterlimit:10;" d="M183.682,332.543
					l1.646-21.602c1.247-17.289,2.717-34.332,4.402-51.092l7.816-81.453h12.143l-5.666,81.93
					c-1.083,16.763-2.428,33.81-4.037,51.103l-8.549,96.16h-13.475l5.165-67.771"/>
				<polygon style="fill:#263238;stroke:#263238;stroke-linecap:round;stroke-linejoin:round;stroke-miterlimit:10;" points="
					219.153,184.757 187.006,184.757 187.351,180.934 219.439,180.934 				"/>
				<g>
					<polygon style="fill:#FFFFFF;stroke:#263238;stroke-linecap:round;stroke-linejoin:round;stroke-miterlimit:10;" points="
						223.421,182.119 183.242,182.119 184.053,173.316 224.063,173.316 					"/>
					<polygon style="fill:#263238;stroke:#263238;stroke-linecap:round;stroke-linejoin:round;stroke-miterlimit:10;" points="
						223.794,176.999 183.714,176.999 184.053,173.316 224.063,173.316 					"/>
					<polygon style="fill:#FFFFFF;stroke:#263238;stroke-linecap:round;stroke-linejoin:round;stroke-miterlimit:10;" points="
						229.695,174.113 178.289,174.113 179.043,166.168 230.253,166.168 					"/>
					<polygon style="fill:#263238;stroke:#263238;stroke-linecap:round;stroke-linejoin:round;stroke-miterlimit:10;" points="
						229.994,169.865 178.692,169.865 179.043,166.168 230.253,166.168 					"/>
				</g>
				<g>
					<polygon style="fill:#FFFFFF;stroke:#263238;stroke-linecap:round;stroke-linejoin:round;stroke-miterlimit:10;" points="
						207.073,406.264 162.59,406.264 161.587,417.151 206.279,417.151 					"/>
					<polygon style="fill:#FFFFFF;stroke:#263238;stroke-linecap:round;stroke-linejoin:round;stroke-miterlimit:10;" points="
						212.703,416.157 155.327,416.157 154.38,426.136 212.003,426.136 					"/>
				</g>
			</g>
			<g>
				<path style="fill:#FFFFFF;stroke:#263238;stroke-linecap:round;stroke-linejoin:round;stroke-miterlimit:10;" d="
					M587.047,407.59h-35.368l-9.668-96.649c-1.916-17.289-3.171-34.332-3.777-51.092l-3.927-81.453h31.871l9.713,81.93
					c2.187,16.763,3.773,33.81,4.738,51.103L587.047,407.59z"/>
				<path style="fill:none;stroke:#263238;stroke-linecap:round;stroke-linejoin:round;stroke-miterlimit:10;" d="M582.986,407.59
					h-27.245l-9.299-96.649c-1.807-17.289-3.1-34.332-3.888-51.092l-4.585-81.453h24.551l9.052,81.93
					c2.006,16.763,3.554,33.81,4.629,51.103L582.986,407.59z"/>
				<path style="fill:none;stroke:#263238;stroke-linecap:round;stroke-linejoin:round;stroke-miterlimit:10;" d="M558.106,196.894
					l6.141,63.433c1.699,16.763,3.183,33.81,4.444,51.103l7.411,96.16h-13.475l-8.674-96.649c-0.691-7.364-1.334-14.683-1.93-21.954
					"/>
				<path style="fill:none;stroke:#263238;stroke-linecap:round;stroke-linejoin:round;stroke-miterlimit:10;" d="M551.253,279.277
					c-0.498-6.516-0.958-12.993-1.379-19.428l-5.702-81.453h12.143l1.379,14.244"/>
				<polygon style="fill:#263238;stroke:#263238;stroke-linecap:round;stroke-linejoin:round;stroke-miterlimit:10;" points="
					566.833,184.757 534.686,184.757 534.397,180.934 566.485,180.934 				"/>
				<g>
					<polygon style="fill:#FFFFFF;stroke:#263238;stroke-linecap:round;stroke-linejoin:round;stroke-miterlimit:10;" points="
						570.663,182.119 530.485,182.119 529.835,173.316 569.844,173.316 					"/>
					<polygon style="fill:#263238;stroke:#263238;stroke-linecap:round;stroke-linejoin:round;stroke-miterlimit:10;" points="
						570.187,176.999 530.107,176.999 529.835,173.316 569.844,173.316 					"/>
					<polygon style="fill:#FFFFFF;stroke:#263238;stroke-linecap:round;stroke-linejoin:round;stroke-miterlimit:10;" points="
						575.609,174.113 524.203,174.113 523.638,166.168 574.848,166.168 					"/>
					<polygon style="fill:#263238;stroke:#263238;stroke-linecap:round;stroke-linejoin:round;stroke-miterlimit:10;" points="
						575.202,169.865 523.901,169.865 523.638,166.168 574.848,166.168 					"/>
				</g>
				<g>
					<polygon style="fill:#FFFFFF;stroke:#263238;stroke-linecap:round;stroke-linejoin:round;stroke-miterlimit:10;" points="
						591.516,406.264 547.033,406.264 547.837,417.151 592.529,417.151 					"/>
					<polygon style="fill:#FFFFFF;stroke:#263238;stroke-linecap:round;stroke-linejoin:round;stroke-miterlimit:10;" points="
						598.788,416.157 541.412,416.157 542.122,426.136 599.744,426.136 					"/>
				</g>
			</g>
			<g>
				<path style="fill:#FFFFFF;stroke:#263238;stroke-linecap:round;stroke-linejoin:round;stroke-miterlimit:10;" d="
					M282.407,407.59h-35.368l3.036-96.649c0.356-17.289,1.342-34.332,2.939-51.092l6.78-81.453h31.871l-1.056,81.93
					c-0.016,16.763-0.671,33.81-1.979,51.103L282.407,407.59z"/>
				<path style="fill:none;stroke:#263238;stroke-linecap:round;stroke-linejoin:round;stroke-miterlimit:10;" d="M278.345,407.59
					H251.1l3.404-96.649c0.465-17.289,1.412-34.332,2.827-51.092l6.121-81.453h24.55l-1.717,81.93
					c-0.197,16.763-0.89,33.81-2.088,51.103L278.345,407.59z"/>
				<path style="fill:none;stroke:#263238;stroke-linecap:round;stroke-linejoin:round;stroke-miterlimit:10;" d="M281.159,196.894
					l-2.197,63.433c-0.504,16.763-1.261,33.81-2.273,51.103l-5.229,96.16h-13.475l4.029-96.649
					c0.277-7.364,0.596-14.683,0.956-21.954"/>
				<path style="fill:none;stroke:#263238;stroke-linecap:round;stroke-linejoin:round;stroke-miterlimit:10;" d="M263.478,279.277
					c0.358-6.516,0.75-12.993,1.175-19.428l5.004-81.453H281.8l-0.493,14.244"/>
				<polygon style="fill:#263238;stroke:#263238;stroke-linecap:round;stroke-linejoin:round;stroke-miterlimit:10;" points="
					291.482,184.757 259.335,184.757 259.548,180.934 291.636,180.934 				"/>
				<g>
					<polygon style="fill:#FFFFFF;stroke:#263238;stroke-linecap:round;stroke-linejoin:round;stroke-miterlimit:10;" points="
						295.659,182.119 255.48,182.119 255.987,173.316 295.997,173.316 					"/>
					<polygon style="fill:#263238;stroke:#263238;stroke-linecap:round;stroke-linejoin:round;stroke-miterlimit:10;" points="
						295.855,176.999 255.775,176.999 255.987,173.316 295.997,173.316 					"/>
					<polygon style="fill:#FFFFFF;stroke:#263238;stroke-linecap:round;stroke-linejoin:round;stroke-miterlimit:10;" points="
						301.657,174.113 250.25,174.113 250.73,166.168 301.94,166.168 					"/>
					<polygon style="fill:#263238;stroke:#263238;stroke-linecap:round;stroke-linejoin:round;stroke-miterlimit:10;" points="
						301.808,169.865 250.507,169.865 250.73,166.168 301.94,166.168 					"/>
				</g>
				<g>
					<polygon style="fill:#FFFFFF;stroke:#263238;stroke-linecap:round;stroke-linejoin:round;stroke-miterlimit:10;" points="
						287.05,406.264 242.567,406.264 241.94,417.151 286.632,417.151 					"/>
					<polygon style="fill:#FFFFFF;stroke:#263238;stroke-linecap:round;stroke-linejoin:round;stroke-miterlimit:10;" points="
						293.022,416.157 235.645,416.157 235.043,426.136 292.666,426.136 					"/>
				</g>
			</g>
			<g>
				<polygon style="fill:#92E3A9;stroke:#263238;stroke-linecap:round;stroke-linejoin:round;stroke-miterlimit:10;" points="
					376.014,65.451 230.95,140.383 521.078,140.383 				"/>
				<g>
					<g>
						<path style="fill:#263238;stroke:#263238;stroke-linecap:round;stroke-linejoin:round;stroke-miterlimit:10;" d="
							M446.911,124.708c0,0-9.993-11.53-5.765-22.292c4.228-10.762,10.761-13.068,10.761-13.068s4.228,7.302,3.843,16.911
							C455.367,115.868,446.911,124.708,446.911,124.708z"/>
						<path style="fill:#263238;stroke:#263238;stroke-linecap:round;stroke-linejoin:round;stroke-miterlimit:10;" d="
							M482.958,111.382c0,0-4.278,14.646-15.614,16.922c-11.336,2.277-16.814-1.966-16.814-1.966s3.848-7.51,12.132-12.392
							C470.947,109.064,482.958,111.382,482.958,111.382z"/>
						<path style="fill:#263238;stroke:#263238;stroke-linecap:round;stroke-linejoin:round;stroke-miterlimit:10;" d="
							M438.208,139.428c0,0-13.242-7.579-12.809-19.133c0.433-11.554,5.837-15.89,5.837-15.89s6.404,5.495,9.217,14.69
							C443.266,128.29,438.208,139.428,438.208,139.428z"/>
						<path style="fill:#263238;stroke:#263238;stroke-linecap:round;stroke-linejoin:round;stroke-miterlimit:10;" d="
							M474.008,135.095c0,0-8.48,12.684-19.976,11.45c-11.496-1.234-15.447-6.926-15.447-6.926s5.926-6.007,15.294-8.175
							C463.248,129.276,474.008,135.095,474.008,135.095z"/>
						<path style="fill:#263238;stroke:#263238;stroke-linecap:round;stroke-linejoin:round;stroke-miterlimit:10;" d="
							M460.181,111.514c0,0-2.03-15.122,7.408-21.801c9.438-6.678,16.166-5.022,16.166-5.022s-0.121,10.671-5.713,18.494
							S460.181,111.514,460.181,111.514z"/>
					</g>
					<g>
						<path style="fill:#FFFFFF;stroke:#263238;stroke-linecap:round;stroke-linejoin:round;stroke-miterlimit:10;" d="
							M446.911,122.018c0,0-9.993-11.53-5.765-22.292c4.228-10.761,10.761-13.067,10.761-13.067s4.228,7.302,3.843,16.911
							S446.911,122.018,446.911,122.018z"/>
						<path style="fill:#FFFFFF;stroke:#263238;stroke-linecap:round;stroke-linejoin:round;stroke-miterlimit:10;" d="
							M482.958,108.692c0,0-4.278,14.646-15.614,16.922c-11.336,2.277-16.814-1.966-16.814-1.966s3.848-7.51,12.132-12.392
							C470.947,106.374,482.958,108.692,482.958,108.692z"/>
						<path style="fill:#FFFFFF;stroke:#263238;stroke-linecap:round;stroke-linejoin:round;stroke-miterlimit:10;" d="
							M438.208,136.738c0,0-13.242-7.579-12.809-19.133c0.433-11.554,5.837-15.89,5.837-15.89s6.404,5.494,9.217,14.69
							C443.266,125.6,438.208,136.738,438.208,136.738z"/>
						<path style="fill:#FFFFFF;stroke:#263238;stroke-linecap:round;stroke-linejoin:round;stroke-miterlimit:10;" d="
							M474.008,132.405c0,0-8.48,12.684-19.976,11.45c-11.496-1.234-15.447-6.926-15.447-6.926s5.926-6.007,15.294-8.175
							C463.248,126.586,474.008,132.405,474.008,132.405z"/>
						<path style="fill:#FFFFFF;stroke:#263238;stroke-linecap:round;stroke-linejoin:round;stroke-miterlimit:10;" d="
							M460.181,108.824c0,0-2.03-15.122,7.408-21.801c9.438-6.678,16.166-5.022,16.166-5.022s-0.121,10.671-5.713,18.494
							S460.181,108.824,460.181,108.824z"/>
					</g>
				</g>
				<g>
					<g>
						<path style="fill:#263238;stroke:#263238;stroke-linecap:round;stroke-linejoin:round;stroke-miterlimit:10;" d="
							M305.423,124.708c0,0,9.993-11.53,5.765-22.292c-4.228-10.762-10.761-13.068-10.761-13.068s-4.228,7.302-3.843,16.911
							C296.968,115.868,305.423,124.708,305.423,124.708z"/>
						<path style="fill:#263238;stroke:#263238;stroke-linecap:round;stroke-linejoin:round;stroke-miterlimit:10;" d="
							M269.376,111.382c0,0,4.278,14.646,15.614,16.922c11.336,2.277,16.814-1.966,16.814-1.966s-3.848-7.51-12.132-12.392
							C281.387,109.064,269.376,111.382,269.376,111.382z"/>
						<path style="fill:#263238;stroke:#263238;stroke-linecap:round;stroke-linejoin:round;stroke-miterlimit:10;" d="
							M314.127,139.428c0,0,13.242-7.579,12.809-19.133c-0.433-11.554-5.837-15.89-5.837-15.89s-6.404,5.495-9.217,14.69
							C309.068,128.29,314.127,139.428,314.127,139.428z"/>
						<path style="fill:#263238;stroke:#263238;stroke-linecap:round;stroke-linejoin:round;stroke-miterlimit:10;" d="
							M278.327,135.095c0,0,8.48,12.684,19.976,11.45c11.496-1.234,15.447-6.926,15.447-6.926s-5.926-6.007-15.294-8.175
							C289.086,129.276,278.327,135.095,278.327,135.095z"/>
						<path style="fill:#263238;stroke:#263238;stroke-linecap:round;stroke-linejoin:round;stroke-miterlimit:10;" d="
							M292.153,111.514c0,0,2.03-15.122-7.409-21.801s-16.166-5.022-16.166-5.022s0.121,10.671,5.713,18.494
							C279.884,111.008,292.153,111.514,292.153,111.514z"/>
					</g>
					<g>
						<path style="fill:#FFFFFF;stroke:#263238;stroke-linecap:round;stroke-linejoin:round;stroke-miterlimit:10;" d="
							M305.423,122.018c0,0,9.993-11.53,5.765-22.292c-4.228-10.761-10.761-13.067-10.761-13.067s-4.228,7.302-3.843,16.911
							C296.968,113.178,305.423,122.018,305.423,122.018z"/>
						<path style="fill:#FFFFFF;stroke:#263238;stroke-linecap:round;stroke-linejoin:round;stroke-miterlimit:10;" d="
							M269.376,108.692c0,0,4.278,14.646,15.614,16.922c11.336,2.277,16.814-1.966,16.814-1.966s-3.848-7.51-12.132-12.392
							C281.387,106.374,269.376,108.692,269.376,108.692z"/>
						<path style="fill:#FFFFFF;stroke:#263238;stroke-linecap:round;stroke-linejoin:round;stroke-miterlimit:10;" d="
							M314.127,136.738c0,0,13.242-7.579,12.809-19.133c-0.433-11.554-5.837-15.89-5.837-15.89s-6.404,5.494-9.217,14.69
							C309.068,125.6,314.127,136.738,314.127,136.738z"/>
						<path style="fill:#FFFFFF;stroke:#263238;stroke-linecap:round;stroke-linejoin:round;stroke-miterlimit:10;" d="
							M278.327,132.405c0,0,8.48,12.684,19.976,11.45c11.496-1.234,15.447-6.926,15.447-6.926s-5.926-6.007-15.294-8.175
							C289.086,126.586,278.327,132.405,278.327,132.405z"/>
						<path style="fill:#FFFFFF;stroke:#263238;stroke-linecap:round;stroke-linejoin:round;stroke-miterlimit:10;" d="
							M292.153,108.824c0,0,2.03-15.122-7.409-21.801c-9.438-6.678-16.166-5.022-16.166-5.022s0.121,10.671,5.713,18.494
							C279.884,108.318,292.153,108.824,292.153,108.824z"/>
					</g>
				</g>
				<g>
					<path style="fill:#263238;stroke:#263238;stroke-linecap:round;stroke-linejoin:round;stroke-miterlimit:10;" d="
						M376.014,62.822c-24.412,0-44.359,18.801-44.554,42.178c-0.197,23.584,19.75,42.856,44.554,42.856
						c24.805,0,44.752-19.273,44.554-42.856C420.373,81.623,400.426,62.822,376.014,62.822z M376.014,137.522
						c-18.798,0-33.926-14.599-33.792-32.478c0.134-17.738,15.262-32.014,33.792-32.014c18.529,0,33.658,14.276,33.792,32.014
						C409.941,122.923,394.812,137.522,376.014,137.522z"/>
					<path style="fill:#FFFFFF;stroke:#263238;stroke-linecap:round;stroke-linejoin:round;stroke-miterlimit:10;" d="
						M376.014,60.887c-24.412,0-44.359,18.801-44.554,42.178c-0.197,23.584,19.75,42.856,44.554,42.856
						c24.805,0,44.752-19.272,44.554-42.856C420.373,79.688,400.426,60.887,376.014,60.887z M376.014,136.781
						c-19.495,0-35.184-15.14-35.044-33.682c0.139-18.395,15.828-33.2,35.044-33.2c19.216,0,34.905,14.805,35.044,33.2
						C411.198,121.641,395.509,136.781,376.014,136.781z"/>
					<g>
						<g>
							<path style="fill:#263238;stroke:#263238;stroke-linecap:round;stroke-linejoin:round;stroke-miterlimit:10;" d="
								M373.93,143.375l0.056-8.117c-5.855-0.309-10.23-2.148-13.126-5.518c-2.893-3.365-4.415-8.524-4.571-15.467l13.012-1.79
								c0.034,2.816,0.271,5.094,0.713,6.832c0.44,1.741,1.096,2.994,1.97,3.759c0.874,0.767,1.935,1.153,3.183,1.161
								c1.588,0.01,2.627-0.501,3.116-1.531c0.488-1.027,0.737-2.113,0.743-3.253c0.016-2.712-0.637-5.005-1.955-6.88
								c-1.319-1.875-3.131-3.764-5.436-5.67l-5.981-4.972c-1.682-1.465-3.209-2.969-4.578-4.512
								c-1.369-1.541-2.465-3.323-3.291-5.342c-0.826-2.019-1.225-4.42-1.196-7.208c0.052-5.083,1.625-9.054,4.716-11.917
								c3.088-2.859,7.215-4.458,12.384-4.8l0.054-7.574l4.289,0.026l-0.047,7.494c3.255,0.179,5.862,0.901,7.823,2.164
								c1.96,1.264,3.428,2.818,4.405,4.665c0.976,1.847,1.644,3.801,2.003,5.861c0.358,2.063,0.563,3.978,0.613,5.746l-13.108,1.45
								c-0.045-1.931-0.162-3.619-0.35-5.065c-0.19-1.446-0.576-2.557-1.162-3.336c-0.587-0.778-1.527-1.144-2.82-1.099
								c-1.407-0.008-2.451,0.546-3.135,1.665c-0.683,1.118-1.03,2.24-1.038,3.364c-0.019,2.571,0.655,4.653,2.025,6.243
								c1.37,1.592,2.869,3.091,4.497,4.498l5.73,4.796c1.911,1.682,3.669,3.471,5.272,5.368c1.604,1.899,2.881,4.013,3.837,6.343
								c0.954,2.333,1.426,5.017,1.417,8.053c-0.009,2.877-0.643,5.509-1.898,7.894c-1.258,2.388-3.055,4.324-5.392,5.809
								c-2.338,1.486-5.128,2.383-8.37,2.69l-0.05,8.2L373.93,143.375z"/>
						</g>
						<g>
							<path style="fill:#FFFFFF;stroke:#263238;stroke-linecap:round;stroke-linejoin:round;stroke-miterlimit:10;" d="
								M373.931,140.615l0.056-8.109c-5.852-0.309-10.225-2.146-13.119-5.512c-2.891-3.362-4.413-8.516-4.569-15.451l13.005-1.788
								c0.034,2.813,0.271,5.089,0.713,6.825c0.44,1.739,1.095,2.991,1.969,3.755c0.873,0.766,1.934,1.152,3.182,1.159
								c1.587,0.009,2.625-0.5,3.114-1.529c0.488-1.026,0.736-2.11,0.743-3.249c0.016-2.709-0.637-5-1.954-6.873
								c-1.318-1.873-3.129-3.76-5.433-5.664l-5.978-4.967c-1.682-1.464-3.208-2.966-4.576-4.507
								c-1.369-1.539-2.464-3.319-3.289-5.336c-0.826-2.017-1.224-4.416-1.196-7.2c0.052-5.078,1.624-9.044,4.714-11.905
								c3.087-2.856,7.211-4.454,12.378-4.796l0.053-7.567l4.286,0.025l-0.047,7.486c3.253,0.179,5.859,0.9,7.819,2.161
								c1.959,1.263,3.426,2.815,4.402,4.66c0.975,1.845,1.643,3.798,2.002,5.855c0.358,2.061,0.562,3.974,0.613,5.74l-13.101,1.449
								c-0.045-1.929-0.162-3.615-0.35-5.06c-0.19-1.444-0.576-2.554-1.161-3.333c-0.586-0.777-1.526-1.143-2.819-1.098
								c-1.407-0.008-2.45,0.546-3.133,1.663c-0.682,1.117-1.029,2.238-1.038,3.361c-0.019,2.568,0.655,4.649,2.024,6.237
								c1.369,1.59,2.867,3.088,4.494,4.493l5.728,4.791c1.91,1.68,3.667,3.467,5.27,5.363c1.603,1.897,2.88,4.009,3.835,6.337
								c0.953,2.331,1.426,5.012,1.416,8.044c-0.009,2.874-0.642,5.503-1.897,7.885c-1.258,2.385-3.054,4.32-5.389,5.804
								c-2.337,1.485-5.125,2.38-8.366,2.687l-0.05,8.191L373.931,140.615z"/>
						</g>
					</g>
				</g>
			</g>
			<polygon style="fill:#FFFFFF;stroke:#263238;stroke-linecap:round;stroke-linejoin:round;stroke-miterlimit:10;" points="
				557.366,153.443 194.663,153.443 195.874,139.664 556.155,139.664 			"/>
			<polygon style="fill:#FFFFFF;stroke:#263238;stroke-linecap:round;stroke-linejoin:round;stroke-miterlimit:10;" points="
				584.247,166.188 167.782,166.188 169.181,152.238 582.848,152.238 			"/>
		</g>
		<polygon style="fill:#92E3A9;stroke:#263238;stroke-linecap:round;stroke-linejoin:round;stroke-miterlimit:10;" points="
			634.487,440.886 117.542,440.886 119.418,423.827 632.611,423.827 		"/>
		<polygon style="fill:#92E3A9;stroke:#263238;stroke-linecap:round;stroke-linejoin:round;stroke-miterlimit:10;" points="
			664.254,458.196 87.775,458.196 89.881,440.886 662.147,440.886 		"/>
	</g>
</g>
<g id="Character_2">
	<g>
		<g>
			<path style="fill:#FFFFFF;stroke:#263238;stroke-linecap:round;stroke-linejoin:round;stroke-miterlimit:10;" d="
				M662.619,252.562l4.103,17.693c0,0-5.385,6.154-10.257,3.846c-4.872-2.308-6.667-15.129-6.667-15.129L662.619,252.562z"/>
			<path style="fill:#92E3A9;stroke:#263238;stroke-linecap:round;stroke-linejoin:round;stroke-miterlimit:10;" d="
				M650.131,208.739c0,0,4.594,3.675,5.513,9.8c0.919,6.125,14.777,47.014,14.777,47.014s-7.733-1.525-15.084,1.231
				c-7.35,2.756-14.93-4.55-14.93-4.55l-0.383-48.29"/>
			
				<line style="fill:none;stroke:#263238;stroke-linecap:round;stroke-linejoin:round;stroke-miterlimit:10;" x1="650.104" y1="246.776" x2="653.798" y2="228.306"/>
		</g>
		<path style="fill:#FFFFFF;stroke:#263238;stroke-linecap:round;stroke-linejoin:round;stroke-miterlimit:10;" d="M562.541,260.803
			l0.066,0.037c4.002-14.305,12.145-38.364,13.716-43.526c2.144-7.044,5.819-8.881,5.819-8.881l5.513,34.301l-2.144,4.594
			c0,0-5.953,16.554-10.464,24.73l12.302,26.109l4.287,9.188l-5.513,7.963c0,0-25.113-38.895-26.338-41.651
			C558.56,270.909,562.541,260.803,562.541,260.803z"/>
		<g>
			<path style="fill:#92E3A9;stroke:#263238;stroke-linecap:round;stroke-linejoin:round;stroke-miterlimit:10;" d="M583.673,207.82
				c0,0-4.287,0.919-7.35,5.819c-3.063,4.9-18.069,54.208-18.069,54.208s4.594,3.675,10.719,4.594
				c6.125,0.919,9.494,0.306,9.494,0.306l8.882-23.276"/>
		</g>
		<polyline style="fill:none;stroke:#263238;stroke-linecap:round;stroke-linejoin:round;stroke-miterlimit:10;" points="
			578.072,232 585.46,252.932 575.302,240.312 		"/>
		<g>
			<path style="fill:#FFFFFF;stroke:#263238;stroke-linecap:round;stroke-linejoin:round;stroke-miterlimit:10;" d="
				M658.335,465.785c0,0,0,1.245,7.78,7.78c7.78,6.535,9.336,8.402,7.157,10.581c-2.178,2.178-12.759-1.867-16.182-4.046
				c-3.423-2.178-1.867-2.178-5.913-4.046c-4.046-1.867-2.179-8.402-1.556-9.958C650.244,464.54,658.335,465.785,658.335,465.785z"
				/>
			<path style="fill:#FFFFFF;stroke:#263238;stroke-linecap:round;stroke-linejoin:round;stroke-miterlimit:10;" d="
				M579.511,464.374c0,0,0,1.245-7.78,7.78c-7.78,6.535-9.336,8.402-7.158,10.581c2.178,2.178,12.759-1.867,16.182-4.046
				c3.423-2.178,1.867-2.178,5.913-4.046c4.046-1.867,2.178-8.402,1.556-9.958C587.602,463.129,579.511,464.374,579.511,464.374z"/>
			<path style="fill:#263238;stroke:#263238;stroke-linecap:round;stroke-linejoin:round;stroke-miterlimit:10;" d="
				M652.233,347.514c0.992-10.471-1.223-31.02-1.223-33.501c0-2.62-4.697-12.615-6.057-15.454l-0.133-3.278
				c0,0-13.272-0.501-26.836-1.306v0.417c-13.369,0.786-26.284,1.273-26.284,1.273l-0.133,3.278
				c-1.36,2.839-6.057,12.834-6.057,15.454c0,2.481-2.215,23.029-1.223,33.501l-7.011,118.82c0,0,2.71,0.908,4.994,0.908
				c2.284,0,5.937-1.37,5.937-1.37s7.307-26.947,9.591-38.821c1.971-10.247,16.549-66.984,20.51-82.352
				c4.1,15.908,18.457,71.805,20.411,81.968c2.284,11.875,9.591,38.821,9.591,38.821s3.654,1.37,5.937,1.37
				c2.284,0,4.994-0.909,4.994-0.909L652.233,347.514z"/>
		</g>
		<g>
			<path style="fill:#92E3A9;stroke:#263238;stroke-linecap:round;stroke-linejoin:round;stroke-miterlimit:10;" d="
				M618.394,199.432c0,0,11.81,2.362,19.781,4.724c7.971,2.362,13.286,3.838,13.286,6.495c0,2.657-3.543,82.076-3.543,82.076
				s-0.295,3.248-7.381,4.133c-7.086,0.886-44.581,2.067-46.943,1.476c-2.362-0.59-3.248-2.952-3.543-6.495
				c-0.295-3.543-9.448-78.828-8.857-82.371c0.591-3.543,29.524-8.857,30.41-9.152C612.489,200.023,615.146,198.842,618.394,199.432
				z"/>
			<path style="fill:none;stroke:#263238;stroke-linecap:round;stroke-linejoin:round;stroke-miterlimit:10;" d="M649.014,245.088
				c0,0-12.199,27.303-28.464,41.244"/>
			<path style="fill:none;stroke:#263238;stroke-linecap:round;stroke-linejoin:round;stroke-miterlimit:10;" d="M602.371,293.232
				c-1.389,1.046-2.705,1.873-3.897,2.395"/>
			<path style="fill:none;stroke:#263238;stroke-linecap:round;stroke-linejoin:round;stroke-miterlimit:10;" d="M624.616,268.905
				c0,0-10.533,14.165-19.537,22.105"/>
		</g>
		<g>
			<path style="fill:#FFFFFF;stroke:#263238;stroke-linecap:round;stroke-linejoin:round;stroke-miterlimit:10;" d="
				M626.777,179.126c0,0,2.729-6.823,4.094-1.365c1.365,5.458-3.411,12.281-6.141,10.234"/>
			<path style="fill:#FFFFFF;stroke:#263238;stroke-linecap:round;stroke-linejoin:round;stroke-miterlimit:10;" d="
				M598.803,180.832c0,0-5.8-3.753-5.458,1.364c0.341,5.117,5.458,10.917,7.164,7.846"/>
			<path style="fill:#FFFFFF;stroke:#263238;stroke-linecap:round;stroke-linejoin:round;stroke-miterlimit:10;" d="M624.73,187.996
				l-0.042,14.236c0,0-5.074,15.704-8.698,15.704c-4.832,0-11.355-14.738-11.355-14.738l-0.715-13.156
				C603.92,190.043,618.589,191.749,624.73,187.996z"/>
			<path style="fill:#263238;" d="M615.34,205.678c2.835-0.515,6.4-3.845,9.174-6.922l0.13-8.055l-5.665-3.417
				c-3.242,0.543-6.848,0.6-9.721,0.513l-4.753,4.521l0.898,7.482C607.909,202.621,611.917,206.301,615.34,205.678z"/>
			<polygon style="fill:#FFFFFF;stroke:#263238;stroke-linecap:round;stroke-linejoin:round;stroke-miterlimit:10;" points="
				603.668,198.367 612.849,211.414 608.984,218.42 600.286,201.749 			"/>
			<polygon style="fill:#FFFFFF;stroke:#263238;stroke-linecap:round;stroke-linejoin:round;stroke-miterlimit:10;" points="
				618.165,211.414 623.238,218.179 628.312,201.266 624.514,198.756 			"/>
			<path style="fill:#FFFFFF;stroke:#263238;stroke-linecap:round;stroke-linejoin:round;stroke-miterlimit:10;" d="
				M596.343,175.955c0,0-4.094-12.622,6.823-20.128c10.917-7.505,23.521,1.957,23.88,11.599c0.967,25.978,0.341,22.175-4.776,29.339
				c-5.117,7.164-8.296,7.679-13.987,3.411C602.592,195.909,596.825,191.742,596.343,175.955z"/>
			<path style="fill:#263238;stroke:#263238;stroke-linecap:round;stroke-linejoin:round;stroke-miterlimit:10;" d="
				M605.099,165.543c0,0,4.74,9.48,7.249,8.365s8.365-8.644,8.365-8.644s-0.558,6.134,0.837,5.019
				c1.394-1.115,4.461-6.413,4.461-6.413s-1.673,6.413-1.115,8.365c0.558,1.952,3.346,7.25,3.346,7.25l1.394-5.019l1.952-1.673
				c0,0,2.231-5.855-0.279-11.99c-2.51-6.134-8.086-8.644-8.086-8.644s-5.577-5.298-11.432-5.298s-13.662,5.019-15.057,8.086
				c-1.394,3.067-1.673,5.577-1.673,5.577s-3.067,3.346-2.788,8.086c0.279,4.74,3.625,9.759,3.625,9.759l2.788-3.067v-5.019
				l2.788,1.673L605.099,165.543z"/>
			<path style="fill:none;stroke:#263238;stroke-linecap:round;stroke-linejoin:round;stroke-miterlimit:10;" d="M602.91,182.899
				c0,0,2.323,1.901,6.124,0"/>
			<path style="fill:none;stroke:#263238;stroke-linecap:round;stroke-linejoin:round;stroke-miterlimit:10;" d="M615.792,182.265
				c0,0,5.068,1.689,7.18-1.056"/>
			<path style="fill:none;stroke:#263238;stroke-linecap:round;stroke-linejoin:round;stroke-miterlimit:10;" d="M610.935,190.501
				c0,0,1.901,1.478,3.168,1.056c1.267-0.422,1.689-2.112,1.689-2.112"/>
			<path style="fill:none;stroke:#263238;stroke-linecap:round;stroke-linejoin:round;stroke-miterlimit:10;" d="M611.357,194.725
				c0,0,3.168,1.689,5.913-1.267"/>
			<path style="fill:none;stroke:#263238;stroke-linecap:round;stroke-linejoin:round;stroke-miterlimit:10;" d="M602.065,179.52
				c-0.622-0.495,3.133-2.811,7.18-1.056"/>
			<path style="fill:none;stroke:#263238;stroke-linecap:round;stroke-linejoin:round;stroke-miterlimit:10;" d="M615.777,177.96
				c0,0,3.379-2.745,6.969-1.056"/>
		</g>
		<g>
			<polygon style="fill:#263238;stroke:#263238;stroke-linecap:round;stroke-linejoin:round;stroke-miterlimit:10;" points="
				612.53,223.552 616.581,251.687 629.946,250.303 627.111,221.246 			"/>
			<g>
				<path style="fill:#FFFFFF;stroke:#263238;stroke-linecap:round;stroke-linejoin:round;stroke-miterlimit:10;" d="
					M634.926,239.741l-2.051-4.615l-4.615-3.077l0.513,3.077l1.795,4.103l-7.949-1.282l-8.973-1.626c0,0-0.362,2.224,0.407,2.48
					c0.769,0.256,7.54,2.992,7.54,2.992l-4.252,0.824l-3.422-2.053c0,0-0.788,4.05,0.238,4.563c1.026,0.513,2.821,5.128,5.641,5.898
					c2.821,0.769,14.242,2.543,14.242,2.543s15.247,25.407,18.58,27.715c3.333,2.308,9.488,1.026,11.026,0.256
					c1.539-0.769,4.386-4.832,4.103-9.488c-0.125-2.048-31.027-28.206-31.027-28.206L634.926,239.741z"/>
				<path style="fill:none;stroke:#263238;stroke-linecap:round;stroke-linejoin:round;stroke-miterlimit:10;" d="M614.156,245.126
					c0,0,5.922,1.46,6.743,1.597c0.821,0.137,3.148,0.411,3.148,0.411"/>
				
					<line style="fill:none;stroke:#263238;stroke-linecap:round;stroke-linejoin:round;stroke-miterlimit:10;" x1="621.592" y1="241.792" x2="626.51" y2="244.122"/>
				<path style="fill:none;stroke:#263238;stroke-linecap:round;stroke-linejoin:round;stroke-miterlimit:10;" d="M616.792,247.954
					c0,0,3.011,1.916,6.57,2.464"/>
			</g>
		</g>
	</g>
</g>
<g id="Chart">
	<g>
		<g>
			
				<circle style="fill:#FFFFFF;stroke:#263238;stroke-linecap:round;stroke-linejoin:round;stroke-miterlimit:10;" cx="672.52" cy="101.179" r="59.761"/>
			<polyline style="fill:none;stroke:#263238;stroke-linecap:round;stroke-linejoin:round;stroke-miterlimit:10;" points="
				634.25,226.533 668.903,226.533 668.903,161.766 			"/>
			<path style="fill:#FFFFFF;stroke:#263238;stroke-linecap:round;stroke-linejoin:round;stroke-miterlimit:10;" d="
				M636.244,226.533c0-1.101-0.893-1.994-1.994-1.994s-1.994,0.893-1.994,1.994s0.893,1.994,1.994,1.994
				S636.244,227.634,636.244,226.533z"/>
		</g>
		<g>
			<g>
				
					<circle style="fill:#263238;stroke:#263238;stroke-linecap:round;stroke-linejoin:round;stroke-miterlimit:10;" cx="657.612" cy="74.894" r="20.684"/>
				<g>
					<path style="fill:#92E3A9;" d="M657.092,92.642l0.024-3.481c-2.511-0.133-4.387-0.921-5.629-2.366
						c-1.241-1.443-1.893-3.655-1.96-6.633l5.58-0.768c0.015,1.207,0.116,2.185,0.306,2.93c0.189,0.746,0.47,1.284,0.845,1.612
						c0.375,0.329,0.83,0.494,1.365,0.498c0.681,0.004,1.126-0.215,1.336-0.656c0.209-0.441,0.316-0.906,0.319-1.395
						c0.007-1.163-0.273-2.146-0.839-2.951c-0.565-0.804-1.343-1.614-2.331-2.431l-2.565-2.132
						c-0.721-0.628-1.376-1.273-1.963-1.935c-0.587-0.661-1.057-1.425-1.411-2.291c-0.354-0.866-0.525-1.896-0.513-3.091
						c0.022-2.18,0.697-3.882,2.023-5.11c1.324-1.226,3.094-1.912,5.311-2.058l0.023-3.248l1.839,0.011l-0.02,3.213
						c1.396,0.077,2.514,0.386,3.355,0.928c0.84,0.542,1.47,1.209,1.889,2c0.418,0.792,0.705,1.63,0.859,2.513
						c0.154,0.885,0.241,1.706,0.263,2.464l-5.621,0.622c-0.019-0.828-0.07-1.552-0.15-2.172c-0.081-0.62-0.247-1.097-0.498-1.431
						c-0.252-0.333-0.655-0.491-1.21-0.471c-0.603-0.004-1.051,0.234-1.344,0.714c-0.293,0.479-0.442,0.961-0.445,1.443
						c-0.008,1.103,0.281,1.995,0.869,2.677c0.587,0.682,1.23,1.326,1.928,1.929l2.457,2.057c0.82,0.721,1.573,1.488,2.261,2.302
						c0.688,0.814,1.236,1.721,1.645,2.72c0.409,1.001,0.612,2.151,0.607,3.453c-0.004,1.234-0.276,2.362-0.814,3.385
						c-0.54,1.024-1.31,1.854-2.312,2.491c-1.003,0.637-2.199,1.022-3.589,1.154l-0.021,3.516L657.092,92.642z"/>
				</g>
			</g>
			<g>
				
					<rect x="646.132" y="119.751" style="fill:#263238;stroke:#263238;stroke-linecap:round;stroke-linejoin:round;stroke-miterlimit:10;" width="10.806" height="22.032"/>
				
					<rect x="661.666" y="111.366" style="fill:#92E3A9;stroke:#263238;stroke-linecap:round;stroke-linejoin:round;stroke-miterlimit:10;" width="10.806" height="30.417"/>
				
					<rect x="677.201" y="111.785" style="fill:#263238;stroke:#263238;stroke-linecap:round;stroke-linejoin:round;stroke-miterlimit:10;" width="10.806" height="29.997"/>
				
					<rect x="692.735" y="100.466" style="fill:#92E3A9;stroke:#263238;stroke-linecap:round;stroke-linejoin:round;stroke-miterlimit:10;" width="10.806" height="41.316"/>
				<g>
					
						<polyline style="fill:none;stroke:#263238;stroke-width:2;stroke-linecap:round;stroke-linejoin:round;stroke-miterlimit:10;" points="
						648.367,113.213 664.298,99.798 683.163,104.409 697.836,84.705 					"/>
					<polygon style="fill:#263238;" points="703.717,75.498 691.119,81.771 702.851,89.545 					"/>
				</g>
			</g>
		</g>
	</g>
</g>
<g id="Character_1">
	<g>
		<path style="fill:#FFFFFF;stroke:#263238;stroke-miterlimit:10;" d="M257.257,302.18c0,0-1.403,2.432-1.403,3.742
			c0,1.31,0.094,1.777,0.094,1.777l-7.297,0.561c0,0,0.094-3.274,0.842-5.239c0.748-1.965,1.912-1.651,1.912-1.651L257.257,302.18z"
			/>
		<path style="fill:#FFFFFF;stroke:#263238;stroke-miterlimit:10;" d="M247.996,304.799c0,0,6.268,0.842,7.858,1.122
			c1.59,0.281,2.619,1.59,2.619,1.59l-10.478,0.936V304.799z"/>
		<path style="fill:#FFFFFF;stroke:#263238;stroke-miterlimit:10;" d="M259.554,281.539c0,0,2.107,2.498,2.186,4.059
			c0.078,1.561-0.078,4.059,0.546,4.996c0.624,0.937,2.264,1.717,2.029,2.576c-0.234,0.859-1.249,2.107-1.639,2.42
			c-0.39,0.312-0.937,2.42-1.327,3.591c-0.39,1.171,0,2.108-0.703,2.966c-0.702,0.859-3.278,0.234-4.371,0
			c-1.093-0.234-3.825-1.171-3.825-1.171s-1.483-7.415-0.234-9.523c1.249-2.107,3.278-7.728,3.825-8.586
			C256.588,282.007,259.554,281.539,259.554,281.539z"/>
		<g>
			<path style="fill:#263238;" d="M259.386,290.323c0.092,0.581,0.337,1.025,0.549,0.992c0.211-0.033,0.308-0.531,0.216-1.112
				c-0.092-0.581-0.337-1.025-0.548-0.991C259.391,289.243,259.294,289.741,259.386,290.323z"/>
			<path style="fill:none;stroke:#263238;stroke-linecap:round;stroke-miterlimit:10;" d="M260.233,287.436
				c0,0-0.88-1.353-1.962,0.541"/>
		</g>
		<path style="fill:#263238;stroke:#263238;stroke-miterlimit:10;" d="M254.424,440.04c-0.095-1.678-0.035-4.684-0.035-4.684
			l8.123-2.242c0,0,1.433,1.404,3.303,2.387c1.871,0.983,4.393,2.208,6.581,2.381c2.188,0.173,2.738,0.571,2.032,1.502
			c-0.706,0.931-4.105,3.269-6.69,3.646c-2.586,0.378-5.667-0.816-7.304-0.591c-0.417,0.057-0.827,0.168-1.226,0.29l0.475,3.203
			c-1.234,0.622-2.891,0.899-2.891,0.899s-0.779-1.74-1.328-2.996c-0.304-0.695-0.533-1.461-0.677-2.007
			C254.575,441.375,254.468,440.809,254.424,440.04z"/>
		<path style="fill:#263238;stroke:#263238;stroke-miterlimit:10;" d="M256.206,364.862c0,0,6.656,19.967,7.14,27.106
			c0.484,7.14-0.484,20.209,0.847,27.106c1.331,6.898,2.178,14.521,2.178,14.521s-2.057,1.331-6.051,1.936
			c-3.993,0.605-7.019,0.726-7.019,0.726s-1.452-6.535-2.662-15.368c-1.21-8.834-4.114-24.444-4.598-26.38
			c-0.484-1.936,2.42-0.968,4.356-15.489c1.936-14.521,0.605-17.789,2.178-17.547C254.148,361.716,256.206,364.862,256.206,364.862z
			"/>
		<path style="fill:#263238;stroke:#263238;stroke-miterlimit:10;" d="M238.697,450.203c0.443-1.774,1.478-4.877,1.478-4.877
			l9.164,0.296c0,0,1.035,1.921,2.66,3.547c1.626,1.626,3.85,3.714,6.067,4.6c2.217,0.887,2.66,1.478,1.626,2.217
			c-2.27,1.621-5.815,2.073-8.526,1.982c-1.555-0.052-3.125-0.382-4.516-1.097c-1.208-0.621-2.421-2.323-3.852-2.328l-0.542,3.481
			c-1.482,0.247-3.294,0-3.294,0s-0.247-2.059-0.412-3.542C238.393,453.057,238.348,451.602,238.697,450.203z"/>
		<path style="fill:#263238;stroke:#263238;stroke-miterlimit:10;" d="M239.534,361.6c0,0-1.607,0.091-0.075,5.456
			c1.533,5.365,5.365,8.941,6.003,10.985c0.639,2.044,1.022,5.365,0.128,10.218c-0.894,4.854-5.365,22.736-6.131,32.571
			c-0.766,9.835-0.766,25.418-0.766,25.418s5.237,0.511,7.664,0.511c2.427,0,3.321-0.383,3.321-0.383l3.96-1.405
			c0,0,0.128-8.43,0.256-18.648c0.128-10.218,1.533-17.627,1.533-17.627s2.044-6.259,6.897-23.758
			c4.854-17.499,5.109-25.418,5.109-25.418S248.348,364.155,239.534,361.6z"/>
		<g>
			<path style="fill:#ADADAD;stroke:#263238;stroke-miterlimit:10;" d="M258.474,307.512c0,0,6.629,1.026,8.312,3.084
				c1.684,2.058,1.659,25.329,2.22,33.748s1.722,17.52,1.161,18.175c-0.561,0.655-17.348,4.128-23.616,3.099
				c-6.268-1.029-8.209-0.123-8.864-0.591c-0.655-0.468-0.936-1.59-0.468-3.648c0.468-2.058,0.936-3.555,0.936-3.555
				s-1.216,0.655-1.59,2.432c-0.374,1.778-0.468,4.49-0.468,4.49s-1.216-0.842-1.777-1.59c-0.561-0.748-0.374-2.152,0.374-4.771
				c0.748-2.619,3.948-12.424,4.977-14.108c1.029-1.684,1.497-0.281,1.216-2.993c-0.281-2.713-1.712-8.552-3.396-15.849
				c-1.684-7.297-3.339-5.667-1.562-11.842c1.777-6.174,12.068-5.145,12.068-5.145L258.474,307.512z"/>
			<g>
				<path style="fill:none;stroke:#263238;stroke-miterlimit:10;" d="M244.208,343.813c-0.55,0.494-1.1,0.909-1.637,1.213"/>
				<path style="fill:none;stroke:#263238;stroke-miterlimit:10;" d="M251.925,333.051c0,0-3.343,6.315-6.907,9.98"/>
				<path style="fill:none;stroke:#263238;stroke-miterlimit:10;" d="M250.335,339.319c0,0-1.871,2.9-3.742,4.303"/>
			</g>
		</g>
		<g>
			<path style="fill:#FFFFFF;stroke:#263238;stroke-miterlimit:10;" d="M269.325,367.197c0,0-0.254,4.503,0.055,6.155
				c0.31,1.651,0.31,2.167-0.103,3.096c-0.413,0.929-1.445,3.2-2.167,3.509s-1.754-0.206-1.754-0.206s-1.239-0.103-1.858-0.31
				c-0.619-0.206-1.342-0.516-1.651-0.619c-0.31-0.103-1.445-1.032-1.548-2.167c-0.103-1.135,0.31-1.445,0.619-1.135
				c0.31,0.31,0.929,0.723,0.929,0.723l1.135-1.342c0,0-1.135-1.445-1.135-2.89c0-1.445,1.651-4.335,1.651-4.335l0.103-0.722
				l5.367-0.826L269.325,367.197z"/>
			<path style="fill:none;stroke:#263238;stroke-miterlimit:10;" d="M265.303,376.226c0,0-1.091,1.023-1.5,1.705
				c-0.409,0.682-1.045,1.292-1.5,1.091"/>
			<path style="fill:none;stroke:#263238;stroke-miterlimit:10;" d="M266.94,376.635c0,0-1.841,3.069-2.387,3.137"/>
			<path style="fill:none;stroke:#263238;stroke-miterlimit:10;" d="M268.372,376.976c0,0-1.705,2.728-2.387,2.933"/>
		</g>
		<g>
			<line style="fill:none;stroke:#FFFFFF;stroke-miterlimit:10;" x1="261.846" y1="376.241" x2="253.963" y2="399.436"/>
			<line style="fill:#FFFFFF;stroke:#263238;stroke-miterlimit:10;" x1="267.11" y1="379.957" x2="272.676" y2="398.198"/>
			<g>
				<polygon style="fill:#FFFFFF;stroke:#263238;stroke-miterlimit:10;" points="274.687,397.425 252.417,397.116 255.664,427.273 
					279.636,424.953 				"/>
				<polygon style="fill:#FFFFFF;stroke:#263238;stroke-miterlimit:10;" points="255.2,397.116 255.664,427.273 248.086,426.5 
					252.417,397.116 				"/>
				<polyline style="fill:#FFFFFF;stroke:#263238;stroke-miterlimit:10;" points="253.963,397.116 252.726,423.098 251.179,424.335 
									"/>
			</g>
		</g>
		<g>
			<path style="fill:#ADADAD;stroke:#263238;stroke-miterlimit:10;" d="M255.574,308.635c0,0,3.929-2.152,7.952-1.216
				c4.023,0.936,5.613,5.52,5.707,11.974c0.093,6.455-0.748,16.932,0.187,26.194c0.935,9.261,0.433,21.534,0.433,21.534
				l-7.543,0.824c0,0-1.965-16.277-2.993-21.516c-1.029-5.239-0.374-9.823-1.59-15.436c-1.216-5.613-1.777-10.852-1.777-10.852"/>
		</g>
		<path style="fill:none;stroke:#263238;stroke-linecap:round;stroke-miterlimit:10;" d="M261.35,297.306
			c0,0-0.781,0.546-1.639-0.937"/>
		<path style="fill:#263238;stroke:#263238;stroke-miterlimit:10;" d="M261.89,280.964c0.395-0.617,0.518-1.528,0.518-3.46
			c0-3.156-2.394-4.027-3.592-3.047c-1.197,0.979-3.379,1.264-3.379,1.264c-1.52-0.193-3.264-0.256-5.218-0.176
			c-8.511,0.347-9.602,3.688-10.992,7.509c-1.39,3.821-1.763,8.81-2.612,10.557c-0.864,1.776-3.952,5.316-4.136,9.577
			c-0.187,4.342,2.482,3.313,2.83,5.224c0.347,1.911-3.44,5.183-4.7,9.73c-2.701,9.75,6.427,15.459,8.338,15.98
			c1.911,0.521,6.079-1.563,6.079-1.563s-2.779-0.868-2.605-2.605c0.174-1.737,2.953-1.042,6.253-4.169
			c3.3-3.127,0.174-8.859,0.521-10.074c0.347-1.216,6.552-2.923,8.86-5.231c1.415-1.415,1.54-4.837-0.544-6.747
			c-2.084-1.911-3.8-11.298-3.278-12.861c0.521-1.563,2.258-4.169,4.863-5.906c2.605-1.737,2.442-2.673,2.442-2.673
			C261.722,281.822,261.827,281.385,261.89,280.964z"/>
	</g>
</g>
<g id="Speech_Bubble">
	<g>
		<g>
			
				<circle style="fill:#FFFFFF;stroke:#263238;stroke-linecap:round;stroke-linejoin:round;stroke-miterlimit:10;" cx="300.158" cy="216.21" r="47.769"/>
			
				<circle style="fill:#FFFFFF;stroke:#263238;stroke-linecap:round;stroke-linejoin:round;stroke-miterlimit:10;" cx="274.29" cy="262.888" r="4.748"/>
			
				<circle style="fill:#FFFFFF;stroke:#263238;stroke-linecap:round;stroke-linejoin:round;stroke-miterlimit:10;" cx="270.188" cy="273.999" r="3.586"/>
		</g>
		<g>
			<g>
				<path style="fill:#92E3A9;stroke:#263238;stroke-linecap:round;stroke-linejoin:round;stroke-miterlimit:10;" d="
					M333.615,215.578l-53.374,29.205c-1.726,0.945-3.892,0.311-4.836-1.415L256.7,209.184c-0.945-1.726-0.311-3.892,1.415-4.836
					l53.374-29.205c1.726-0.945,3.892-0.311,4.836,1.415l18.705,34.184C335.975,212.468,335.342,214.633,333.615,215.578z"/>
				
					<rect x="259.819" y="201.506" transform="matrix(0.8773 -0.48 0.48 0.8773 -62.915 166.3416)" style="fill:#263238;stroke:#263238;stroke-linecap:round;stroke-linejoin:round;stroke-miterlimit:10;" width="67.968" height="9.375"/>
				<path style="fill:#FFFFFF;stroke:#263238;stroke-linecap:round;stroke-linejoin:round;stroke-miterlimit:10;" d="
					M303.646,184.772c-0.567-1.035-1.865-1.415-2.901-0.849c-1.035,0.566-1.415,1.865-0.849,2.901
					c0.566,1.035,1.865,1.415,2.901,0.849C303.832,187.106,304.212,185.807,303.646,184.772z"/>
				<path style="fill:#FFFFFF;stroke:#263238;stroke-linecap:round;stroke-linejoin:round;stroke-miterlimit:10;" d="M310.52,181.01
					c-0.566-1.035-1.865-1.416-2.901-0.849c-1.035,0.566-1.415,1.865-0.849,2.901c0.567,1.035,1.865,1.415,2.901,0.849
					C310.706,183.344,311.086,182.046,310.52,181.01z"/>
				
					<line style="fill:#FFFFFF;stroke:#263238;stroke-linecap:round;stroke-linejoin:round;stroke-miterlimit:10;" x1="276.822" y1="235.179" x2="288.695" y2="228.682"/>
				
					<line style="fill:#FFFFFF;stroke:#263238;stroke-linecap:round;stroke-linejoin:round;stroke-miterlimit:10;" x1="278.019" y1="237.366" x2="289.892" y2="230.869"/>
			</g>
			<g>
				<path style="fill:#FFFFFF;stroke:#263238;stroke-linecap:round;stroke-linejoin:round;stroke-miterlimit:10;" d="
					M340.535,240.931l-59.903,10.645c-1.938,0.344-3.787-0.947-4.132-2.885l-6.818-38.366c-0.344-1.938,0.947-3.788,2.885-4.132
					l59.903-10.645c1.938-0.344,3.788,0.947,4.132,2.885l6.818,38.366C343.764,238.737,342.472,240.587,340.535,240.931z"/>
				
					<rect x="271.815" y="214.644" transform="matrix(0.9846 -0.175 0.175 0.9846 -33.6569 56.8846)" style="fill:#263238;stroke:#263238;stroke-linecap:round;stroke-linejoin:round;stroke-miterlimit:10;" width="67.968" height="9.375"/>
				<path style="fill:#FFFFFF;stroke:#263238;stroke-linecap:round;stroke-linejoin:round;stroke-miterlimit:10;" d="
					M321.964,202.172c-0.207-1.162-1.316-1.937-2.478-1.73c-1.162,0.206-1.937,1.316-1.73,2.478c0.207,1.162,1.316,1.937,2.478,1.73
					C321.396,204.443,322.17,203.334,321.964,202.172z"/>
				<path style="fill:#FFFFFF;stroke:#263238;stroke-linecap:round;stroke-linejoin:round;stroke-miterlimit:10;" d="
					M329.679,200.801c-0.207-1.162-1.316-1.937-2.478-1.73c-1.162,0.206-1.937,1.316-1.73,2.478c0.206,1.162,1.316,1.937,2.478,1.73
					C329.111,203.072,329.885,201.963,329.679,200.801z"/>
				
					<line style="fill:#FFFFFF;stroke:#263238;stroke-linecap:round;stroke-linejoin:round;stroke-miterlimit:10;" x1="280.456" y1="241.382" x2="293.782" y2="239.014"/>
				
					<line style="fill:#FFFFFF;stroke:#263238;stroke-linecap:round;stroke-linejoin:round;stroke-miterlimit:10;" x1="280.892" y1="243.837" x2="294.218" y2="241.469"/>
			</g>
		</g>
	</g>
</g>
</svg>
